<svg class="@@class" width="40" height="40" viewBox="0 0 40 40" fill="none" xmlns="http://www.w3.org/2000/svg">
<path d="M39.9644 34.6373C40.0017 33.9965 39.907 33.3549 39.6861 32.7522C39.4653 32.1495 39.1229 31.5986 38.6804 31.1336C38.2378 30.6686 37.7045 30.2995 37.1134 30.049C36.5223 29.7986 35.886 29.6722 35.2441 29.6777H30.956C30.7849 29.6777 30.6208 29.6097 30.4998 29.4888C30.3788 29.3678 30.3108 29.2037 30.3108 29.0326C30.3108 28.8615 30.3788 28.6974 30.4998 28.5764C30.6208 28.4554 30.7849 28.3875 30.956 28.3875H33.5639C34.7493 28.3875 35.8864 27.9181 36.7266 27.082C37.5667 26.2458 38.0414 25.1111 38.0469 23.9259V23.8156C38.0411 22.6308 37.5663 21.4965 36.7263 20.6608C35.8863 19.8251 34.7496 19.3559 33.5646 19.3559H28.3771C28.206 19.3559 28.0419 19.2879 27.9209 19.167C27.7999 19.046 27.7319 18.8819 27.7319 18.7108C27.7319 18.5397 27.7999 18.3756 27.9209 18.2546C28.0419 18.1337 28.206 18.0657 28.3771 18.0657H30.8244C32.0596 18.0706 33.2831 17.8251 34.4207 17.344C35.5584 16.8629 36.5868 16.1562 37.4437 15.2666C38.3005 14.377 38.9681 13.3229 39.4062 12.1681C39.8442 11.0133 40.0435 9.78172 39.9922 8.54772L39.9877 8.46385C39.9899 8.40763 39.9856 8.35133 39.9748 8.29612C39.952 8.13 39.8655 7.97924 39.7335 7.8758C39.6016 7.77236 39.4345 7.72436 39.2677 7.74197C39.1009 7.75959 38.9476 7.84143 38.8401 7.97016C38.7327 8.09889 38.6796 8.26439 38.6921 8.43159C38.6921 11.6926 31.6593 12.2578 28.3771 12.2578C20.0448 12.2578 16.7846 15.1885 15.5593 17.058C15.4933 17.1552 15.4551 17.2685 15.4487 17.3858C15.4424 17.5031 15.4682 17.6199 15.5234 17.7236C15.5786 17.8273 15.661 17.9139 15.7618 17.9742C15.8627 18.0345 15.978 18.0661 16.0955 18.0657H19.3519C19.523 18.0657 19.6871 18.1337 19.8081 18.2546C19.9291 18.3756 19.9971 18.5397 19.9971 18.7108C19.9971 18.8819 19.9291 19.046 19.8081 19.167C19.6871 19.2879 19.523 19.3559 19.3519 19.3559H14.1644C12.9792 19.3559 11.8422 19.8252 11.0022 20.6612C10.1622 21.4972 9.68758 22.6319 9.68212 23.8169V23.8717C9.68792 25.0713 10.1685 26.2197 11.0189 27.0659C11.8692 27.9122 13.0201 28.3873 14.2199 28.3875H16.7756C16.9467 28.3875 17.1108 28.4554 17.2318 28.5764C17.3528 28.6974 17.4208 28.8615 17.4208 29.0326C17.4208 29.2037 17.3528 29.3678 17.2318 29.4888C17.1108 29.6097 16.9467 29.6777 16.7756 29.6777H12.4849C11.8429 29.6722 11.2066 29.7986 10.6155 30.0491C10.0243 30.2995 9.49092 30.6688 9.04835 31.1338C8.60578 31.5989 8.26347 32.1499 8.04264 32.7526C7.8218 33.3554 7.72715 33.9971 7.76455 34.638C7.90738 36.1195 8.60208 37.4931 9.71076 38.4863C10.8194 39.4795 12.2611 40.0196 13.7495 39.9995H33.9795C35.468 40.0196 36.9097 39.4794 38.0184 38.4861C39.1271 37.4927 39.8218 36.1189 39.9644 34.6373ZM34.1795 37.419C34.0084 37.419 33.8442 37.3511 33.7232 37.2301C33.6022 37.1091 33.5343 36.945 33.5343 36.7739C33.5343 36.6028 33.6022 36.4387 33.7232 36.3178C33.8442 36.1968 34.0084 36.1288 34.1795 36.1288C34.6924 36.1275 35.184 35.9231 35.5467 35.5605C35.9094 35.1978 36.1137 34.7063 36.1151 34.1935C36.1151 34.0224 36.1831 33.8583 36.3041 33.7373C36.4251 33.6163 36.5892 33.5484 36.7603 33.5484C36.9314 33.5484 37.0955 33.6163 37.2165 33.7373C37.3375 33.8583 37.4055 34.0224 37.4055 34.1935C37.4055 35.049 37.0656 35.8694 36.4606 36.4743C35.8556 37.0792 35.0351 37.419 34.1795 37.419Z" fill="#EB1616"/>
<path d="M30.3249 15.4852H27.0988V12.2597C27.0988 11.7464 26.8949 11.2541 26.5319 10.8912C26.1689 10.5282 25.6766 10.3243 25.1632 10.3243H24.7032C25.4277 6.5072 23.2921 3.2281 16.7755 3.2281C7.82576 3.2281 6.4121 0.417995 6.4063 0.406383C6.3507 0.266824 6.24813 0.151042 6.11628 0.0790073C5.98444 0.00697243 5.83158 -0.0167985 5.68408 0.0117947C5.53658 0.0403879 5.40369 0.119552 5.30832 0.235633C5.21295 0.351714 5.16109 0.497433 5.16168 0.647654C5.16168 6.22851 6.82891 8.97475 8.36516 10.3243H7.09732C6.58395 10.3243 6.09162 10.5282 5.72862 10.8912C5.36562 11.2541 5.16168 11.7464 5.16168 12.2597V15.4852H1.93563C1.42227 15.4852 0.929935 15.6891 0.566933 16.0521C0.203932 16.415 0 16.9073 0 17.4206V30.3228C0 30.8361 0.203932 31.3283 0.566933 31.6913C0.929935 32.0542 1.42227 32.2581 1.93563 32.2581H30.3249C30.8383 32.2581 31.3306 32.0542 31.6936 31.6913C32.0566 31.3283 32.2605 30.8361 32.2605 30.3228V17.4206C32.2605 16.9073 32.0566 16.415 31.6936 16.0521C31.3306 15.6891 30.8383 15.4852 30.3249 15.4852ZM6.50824 2.32043C7.93996 3.341 10.8712 4.51832 16.7755 4.51832C21.1029 4.51832 24.3561 6.09304 23.3831 10.3243H11.0208C10.6066 10.2482 7.00312 9.39472 6.50824 2.32043ZM6.45211 12.2597C6.45211 12.0886 6.52008 11.9245 6.64108 11.8035C6.76208 11.6825 6.9262 11.6146 7.09732 11.6146H25.1632C25.3343 11.6146 25.4984 11.6825 25.6194 11.8035C25.7404 11.9245 25.8084 12.0886 25.8084 12.2597V15.4852H6.45211V12.2597ZM30.9701 30.3228C30.9701 30.4939 30.9021 30.658 30.7811 30.7789C30.6601 30.8999 30.496 30.9679 30.3249 30.9679H1.93563C1.76451 30.9679 1.6004 30.8999 1.4794 30.7789C1.3584 30.658 1.29042 30.4939 1.29042 30.3228V17.4206C1.29042 17.2495 1.3584 17.0854 1.4794 16.9644C1.6004 16.8434 1.76451 16.7754 1.93563 16.7754H30.3249C30.496 16.7754 30.6601 16.8434 30.7811 16.9644C30.9021 17.0854 30.9701 17.2495 30.9701 17.4206V30.3228Z" fill="white"/>
<path d="M24.5172 21.2913H7.74173C7.05725 21.2913 6.4008 21.5631 5.9168 22.0471C5.4328 22.531 5.16089 23.1873 5.16089 23.8717C5.16089 24.5561 5.4328 25.2124 5.9168 25.6964C6.4008 26.1803 7.05725 26.4522 7.74173 26.4522H24.5172C25.2017 26.4522 25.8581 26.1803 26.3421 25.6964C26.8261 25.2124 27.098 24.5561 27.098 23.8717C27.098 23.1873 26.8261 22.531 26.3421 22.0471C25.8581 21.5631 25.2017 21.2913 24.5172 21.2913ZM24.5172 25.1619H7.74173C7.39949 25.1619 7.07127 25.026 6.82927 24.784C6.58726 24.5421 6.45131 24.2139 6.45131 23.8717C6.45131 23.5295 6.58726 23.2013 6.82927 22.9594C7.07127 22.7174 7.39949 22.5815 7.74173 22.5815H24.5172C24.8594 22.5815 25.1877 22.7174 25.4297 22.9594C25.6717 23.2013 25.8076 23.5295 25.8076 23.8717C25.8076 24.2139 25.6717 24.5421 25.4297 24.784C25.1877 25.026 24.8594 25.1619 24.5172 25.1619Z" fill="white"/>
</svg>
