<svg class="@@class" width="70" height="55" viewBox="0 0 70 55" fill="none" xmlns="http://www.w3.org/2000/svg">
<path fillRule="evenodd" clipRule="evenodd" d="M18.5001 10.3039C15.6409 12.1466 13.2129 14.5424 11.3709 17.3385C9.90963 19.5567 8.84273 21.9881 8.20897 24.5326C8.04386 25.1955 7.90815 25.8661 7.80252 26.5426H24.0001C25.4588 26.5426 26.8577 27.0999 27.8892 28.0919C28.9206 29.0839 29.5001 30.4292 29.5001 31.8321V47.7005C29.5001 49.1034 28.9206 50.4488 27.8892 51.4408C26.8577 52.4327 25.4588 52.99 24.0001 52.99H7.50002C6.04132 52.99 4.64237 52.4327 3.61092 51.4408C2.57946 50.4488 2 49.1034 2 47.7005V30.113C2.00167 25.3244 3.23243 20.6102 5.58308 16.3887C7.93372 12.1673 11.3315 8.5692 15.475 5.91368L20.3976 2.73999L23.4226 7.13026L18.5001 10.3039ZM14.3973 4.22047C9.98248 7.05042 6.35275 10.8906 3.83778 15.4072C1.32203 19.9251 0.00179064 24.9766 0 30.1123V47.7005C0 49.6657 0.812566 51.5316 2.22816 52.893C3.64076 54.2515 5.5386 55 7.50002 55H24.0001C25.9615 55 27.8593 54.2515 29.2719 52.893C30.6875 51.5316 31.5001 49.6657 31.5001 47.7005V31.8321C31.5001 29.8669 30.6875 28.0011 29.2719 26.6397C27.8593 25.2811 25.9615 24.5326 24.0001 24.5326H10.2769C10.8661 22.3877 11.7955 20.335 13.0385 18.4481C14.7241 15.8894 16.9504 13.6904 19.5797 11.9959L26.2463 7.69777L20.9427 0.000488281L14.3997 4.21894C14.3989 4.21945 14.3981 4.21996 14.3973 4.22047Z" fill="currentColor"/>
<path fillRule="evenodd" clipRule="evenodd" d="M58.0797 11.9959C55.4504 13.6904 53.2241 15.8894 51.5385 18.448C50.2955 20.3349 49.3661 22.3876 48.7769 24.5326H62.5001C64.4615 24.5326 66.3593 25.2811 67.7719 26.6396C69.1875 28.001 70.0001 29.8668 70.0001 31.832V47.7005C70.0001 49.6657 69.1875 51.5315 67.7719 52.8929C66.3593 54.2514 64.4615 54.9999 62.5001 54.9999H46C44.0386 54.9999 42.1408 54.2514 40.7282 52.8929C39.3126 51.5315 38.5 49.6657 38.5 47.7005V30.113C38.5018 24.9772 39.822 19.925 42.3378 15.4071C44.8531 10.8898 48.4836 7.04915 52.8994 4.21907C52.8995 4.21901 52.8993 4.21914 52.8994 4.21907L59.4799 0L64.7389 7.70249L58.0797 11.9959ZM62.5001 26.5426C63.9588 26.5426 65.3577 27.0998 66.3892 28.0918C67.4206 29.0838 68.0001 30.4292 68.0001 31.832V47.7005C68.0001 49.1033 67.4206 50.4487 66.3892 51.4407C65.3577 52.4327 63.9588 52.9899 62.5001 52.9899H46C44.5413 52.9899 43.1424 52.4327 42.1109 51.4407C41.0795 50.4487 40.5 49.1033 40.5 47.7005V30.113C40.5017 25.3243 41.7324 20.6101 44.0831 16.3887C46.4337 12.1673 49.8315 8.56913 53.975 5.91361L58.9251 2.73993L61.9226 7.13019L57.0001 10.3039C54.1409 12.1465 51.7129 14.5424 49.8709 17.3384C48.4096 19.5566 47.3427 21.988 46.709 24.5326C46.5439 25.1955 46.4082 25.8661 46.3025 26.5426H62.5001Z" fill="currentColor"/>
</svg>
