<svg class="@@class" width="40" height="40" viewBox="0 0 40 40" fill="none" xmlns="http://www.w3.org/2000/svg">
<path d="M16.7733 20.0327C23.9096 20.0327 31.6111 16.8277 31.6111 11.65C31.6111 8.73987 29.7905 7.45673 27.6836 7.77929C25.9224 7.81154 24.1761 9.33144 22.3291 10.9404C20.4821 12.5493 18.5558 14.2279 16.7733 14.2279C13.0839 14.2279 8.68483 12.3648 8.64096 12.3454C8.53283 12.2991 8.41409 12.2832 8.2976 12.2995C8.1811 12.3158 8.07127 12.3637 7.98 12.4379C7.88872 12.5121 7.81947 12.6098 7.77974 12.7205C7.74 12.8313 7.7313 12.9507 7.75457 13.066C7.76811 13.1357 9.23511 20.0327 16.7733 20.0327Z" fill="#EB1616"/>
<path d="M32.3632 14.2298C35.8469 15.1678 38.0796 20.8422 38.1048 20.9087C38.1539 21.0359 38.242 21.1443 38.3565 21.2184C38.4711 21.2924 38.6061 21.3282 38.7423 21.3207C38.8784 21.3132 39.0087 21.2627 39.1144 21.1765C39.2201 21.0903 39.2957 20.9728 39.3305 20.8409C40.3846 16.8373 40.0201 13.704 38.2461 11.528C36.5178 9.40687 33.8767 8.72497 32.1174 8.51208C32.668 9.46376 32.9396 10.5512 32.9013 11.6499C32.9017 12.5378 32.7185 13.4161 32.3632 14.2298Z" fill="#EB1616"/>
<path d="M38.9124 23.4281C38.8195 23.5145 29.5479 32.0655 24.2276 28.5206C24.1216 28.4499 23.997 28.4121 23.8696 28.4121C23.7421 28.4121 23.6175 28.4499 23.5115 28.5206C18.2003 32.0591 8.91894 23.5139 8.82668 23.4281C8.73152 23.3384 8.61135 23.2797 8.4821 23.2599C8.35285 23.2401 8.22063 23.26 8.10295 23.317C7.98528 23.374 7.88771 23.4655 7.82317 23.5792C7.75864 23.6929 7.73019 23.8236 7.74159 23.9538C7.75321 24.0958 8.93442 36.5743 19.3537 39.4328V35.5053C19.3537 35.3342 19.4217 35.1701 19.5427 35.0492C19.6637 34.9282 19.8278 34.8602 19.9988 34.8602C20.1699 34.8602 20.334 34.9282 20.455 35.0492C20.576 35.1701 20.644 35.3342 20.644 35.5053V39.7257C21.4962 39.8802 22.3587 39.971 23.2244 39.9973V33.5713C23.2244 33.4002 23.2924 33.2361 23.4134 33.1151C23.5344 32.9941 23.6985 32.9261 23.8696 32.9261C24.0407 32.9261 24.2047 32.9941 24.3257 33.1151C24.4467 33.2361 24.5147 33.4002 24.5147 33.5713V39.9973C25.3804 39.971 26.2429 39.8802 27.0952 39.7257V35.5053C27.0952 35.3342 27.1631 35.1701 27.2841 35.0492C27.4051 34.9282 27.5692 34.8602 27.7403 34.8602C27.9114 34.8602 28.0755 34.9282 28.1964 35.0492C28.3174 35.1701 28.3854 35.3342 28.3854 35.5053V39.4328C38.8021 36.5743 39.9833 24.0958 39.9975 23.9538C40.0089 23.8236 39.9805 23.6929 39.9159 23.5792C39.8514 23.4655 39.7538 23.374 39.6362 23.317C39.5185 23.26 39.3863 23.2401 39.257 23.2599C39.1278 23.2797 39.0076 23.3384 38.9124 23.4281Z" fill="#EB1616"/>
<path d="M7.44463 11.6123V11.6593V11.6645C7.45156 13.8888 8.34178 16.0192 9.91946 17.587C11.4971 19.1549 13.633 20.0319 15.8573 20.0249C18.0815 20.018 20.2119 19.1278 21.7798 17.5501C23.3477 15.9724 24.2246 13.8365 24.2177 11.6123V7.74154C24.2177 2.03353 20.5521 0.000120169 17.1214 0.000120169C15.7724 -0.00902331 14.4721 0.50393 13.4926 1.43164C13.1208 1.79928 12.6801 2.09 12.1958 2.28715C11.7115 2.4843 11.1931 2.58402 10.6702 2.58059C10.2371 2.56275 9.80552 2.64201 9.40702 2.81258C9.00852 2.98314 8.65322 3.24068 8.36715 3.56634C7.15045 4.96947 7.39947 7.40286 7.44463 7.78477V11.6123ZM22.9275 11.6123C22.8925 13.462 22.1364 15.225 20.8205 16.5254C19.5046 17.8258 17.7328 18.561 15.8828 18.5741C14.0327 18.5872 12.2507 17.8773 10.9165 16.5957C9.58224 15.314 8.80128 13.562 8.74003 11.7129C8.95098 11.1607 10.0986 8.38666 11.9605 8.38666C13.0452 8.38287 14.1166 8.1473 15.1028 7.69574C15.9377 7.3078 16.846 7.10343 17.7665 7.09642C20.0819 7.09642 22.9275 8.87502 22.9275 10.322V11.6123ZM9.34192 4.41144C9.50836 4.22717 9.71425 4.08284 9.94425 3.98924C10.1742 3.89563 10.4224 3.85516 10.6702 3.87083C12.0194 3.88051 13.3198 3.36748 14.299 2.43931C14.6709 2.07178 15.1116 1.78114 15.5959 1.584C16.0802 1.38685 16.5985 1.28707 17.1214 1.29036C18.4839 1.29036 22.9275 1.75549 22.9275 7.74154V7.84412C21.4979 6.583 19.672 5.86201 17.7665 5.80619C16.6818 5.80998 15.6104 6.04555 14.6242 6.49711C13.7894 6.88519 12.881 7.08956 11.9605 7.09642C11.3086 7.13835 10.676 7.33486 10.1151 7.66972C9.55421 8.00457 9.08108 8.46815 8.73487 9.0221V7.74154C8.73487 7.72606 8.72712 7.71251 8.72583 7.69703C8.72454 7.68155 8.73099 7.66606 8.72906 7.64994C8.64455 7.04546 8.58391 5.28558 9.34192 4.41144Z" fill="white"/>
<path d="M21.2889 21.2891H10.3219C7.58536 21.2923 4.96183 22.3808 3.0268 24.3159C1.09177 26.2509 0.00324387 28.8744 0 31.611C0 31.7821 0.0679676 31.9461 0.188951 32.0671C0.309934 32.1881 0.474023 32.2561 0.645119 32.2561H30.9657C31.1368 32.2561 31.3009 32.1881 31.4219 32.0671C31.5428 31.9461 31.6108 31.7821 31.6108 31.611C31.6076 28.8744 30.519 26.2509 28.584 24.3159C26.649 22.3808 24.0255 21.2923 21.2889 21.2891ZM1.31282 30.9658C1.47875 28.689 2.49963 26.5591 4.1706 25.0036C5.84157 23.4481 8.03898 22.5821 10.3219 22.5793H21.2889C23.5718 22.5821 25.7692 23.4481 27.4402 25.0036C29.1112 26.5591 30.1321 28.689 30.298 30.9658H1.31282Z" fill="white"/>
<path d="M19.3878 14.2605C19.3665 14.2708 17.3092 15.2778 16.3441 13.8373C16.2852 13.7489 16.2054 13.6765 16.1117 13.6264C16.0181 13.5763 15.9135 13.55 15.8073 13.55C15.7012 13.55 15.5966 13.5763 15.503 13.6264C15.4093 13.6765 15.3295 13.7489 15.2706 13.8373C14.3139 15.2656 12.3102 14.3005 12.225 14.2592C12.0718 14.183 11.8946 14.1707 11.7323 14.2252C11.5701 14.2796 11.4361 14.3963 11.3599 14.5495C11.2837 14.7027 11.2714 14.8799 11.3259 15.0422C11.3803 15.2044 11.497 15.3384 11.6502 15.4146C12.2964 15.7283 13.0041 15.8949 13.7223 15.9023C14.4838 15.9219 15.2256 15.6595 15.8054 15.1656C16.3861 15.6608 17.1295 15.9235 17.8924 15.9029C18.6106 15.8955 19.3183 15.7289 19.9645 15.4152C20.1176 15.3388 20.2341 15.2046 20.2883 15.0422C20.3425 14.8799 20.33 14.7026 20.2535 14.5495C20.177 14.3964 20.0428 14.2799 19.8805 14.2257C19.7181 14.1715 19.5409 14.184 19.3878 14.2605Z" fill="white"/>
</svg>
