<svg class="@@class" width="40" height="40" viewBox="0 0 40 40" fill="none" xmlns="http://www.w3.org/2000/svg">
<path d="M29.0304 9.03442C22.9831 9.03442 18.0635 14.8224 18.0635 21.9367C18.0635 26.2635 19.8975 30.2794 22.9664 32.6798C23.0435 32.7355 23.1069 32.8081 23.1517 32.8921C23.1964 32.9761 23.2213 33.0692 23.2244 33.1643V34.0172C23.2128 34.7917 23.354 35.5609 23.6398 36.2809C23.9257 37.0009 24.3506 37.6574 24.8904 38.2131C25.4301 38.7687 26.0741 39.2125 26.7855 39.5191C27.4969 39.8257 28.2617 39.9891 29.0362 40C30.5751 39.9984 32.0504 39.386 33.138 38.2974C34.2256 37.2087 34.8365 35.7328 34.8365 34.1939V33.1617C34.8397 33.0667 34.8647 32.9736 34.9094 32.8896C34.9541 32.8057 35.0174 32.733 35.0945 32.6773C38.1633 30.2794 39.9974 26.2635 39.9974 21.9367C39.9974 14.8224 35.0777 9.03442 29.0304 9.03442ZM29.0304 37.0969C28.7115 37.0969 28.3996 37.0023 28.1344 36.8251C27.8692 36.6479 27.6625 36.396 27.5404 36.1013C27.4183 35.8066 27.3864 35.4824 27.4486 35.1695C27.5109 34.8567 27.6645 34.5693 27.89 34.3437C28.1156 34.1182 28.4029 33.9646 28.7158 33.9024C29.0286 33.8401 29.3529 33.8721 29.6476 33.9941C29.9423 34.1162 30.1942 34.3229 30.3714 34.5881C30.5486 34.8534 30.6432 35.1652 30.6432 35.4841C30.6432 35.9119 30.4733 36.3221 30.1709 36.6246C29.8684 36.927 29.4582 37.0969 29.0304 37.0969ZM29.0304 32.2586C24.4062 32.2586 20.6439 27.6279 20.6439 21.9367C20.6439 16.2455 24.4062 11.6149 29.0304 11.6149C33.6546 11.6149 37.4169 16.2455 37.4169 21.9367C37.4169 27.6279 33.6546 32.2586 29.0304 32.2586Z" fill="#EB1616"/>
<path d="M29.0305 12.9052C25.1178 12.9052 21.9342 16.9565 21.9342 21.9368C21.9342 26.9171 25.1178 30.9684 29.0305 30.9684C32.9431 30.9684 36.1267 26.9171 36.1267 21.9368C36.1267 16.9565 32.9431 12.9052 29.0305 12.9052ZM27.2841 20.8356L29.2195 18.9002C29.3412 18.7827 29.5041 18.7177 29.6733 18.7191C29.8424 18.7206 30.0042 18.7885 30.1238 18.9081C30.2434 19.0277 30.3113 19.1895 30.3128 19.3586C30.3142 19.5278 30.2492 19.6907 30.1317 19.8124L28.1963 21.7477C28.0747 21.8653 27.9117 21.9303 27.7426 21.9288C27.5734 21.9273 27.4116 21.8595 27.292 21.7399C27.1724 21.6203 27.1045 21.4585 27.1031 21.2893C27.1016 21.1202 27.1666 20.9572 27.2841 20.8356ZM26.9061 26.9087C26.7844 27.0262 26.6215 27.0912 26.4523 27.0897C26.2832 27.0883 26.1214 27.0204 26.0018 26.9008C25.8822 26.7812 25.8143 26.6194 25.8128 26.4503C25.8114 26.2811 25.8764 26.1181 25.9939 25.9965L33.0902 18.9002C33.2119 18.7827 33.3748 18.7177 33.544 18.7191C33.7131 18.7206 33.8749 18.7885 33.9945 18.9081C34.1141 19.0277 34.182 19.1895 34.1834 19.3586C34.1849 19.5278 34.1199 19.6907 34.0024 19.8124L26.9061 26.9087Z" fill="#EB1616"/>
<path d="M7.01138 31.4593L7.04171 31.4303C6.56367 31.029 5.71212 30.1336 1.76144 26.0991C0.631735 24.9336 0 23.3741 0 21.751C0 20.1278 0.631735 18.5684 1.76144 17.4029L17.0313 1.80918C17.5872 1.23673 18.2522 0.781648 18.9871 0.470886C19.722 0.160123 20.5118 0 21.3097 0C22.1076 0 22.8974 0.160123 23.6323 0.470886C24.3672 0.781648 25.0323 1.23673 25.5881 1.80918L30.8368 7.17138C31.3336 7.68416 31.6114 8.37014 31.6114 9.08414C31.6114 9.79814 31.3336 10.4841 30.8368 10.9969C30.5908 11.2499 30.2966 11.4511 29.9716 11.5884C29.6465 11.7258 29.2972 11.7966 28.9443 11.7966C28.5915 11.7966 28.2422 11.7258 27.9171 11.5884C27.5921 11.4511 27.2978 11.2499 27.0519 10.9969L23.7115 7.58618C23.3254 7.20658 22.8056 6.99385 22.2642 6.99385C21.7227 6.99385 21.2029 7.20658 20.8169 7.58618C20.4277 7.98748 20.2101 8.52451 20.2101 9.0835C20.2101 9.64249 20.4277 10.1795 20.8169 10.5808L24.1573 13.9915C24.6541 14.5043 24.9319 15.1903 24.9319 15.9043C24.9319 16.6183 24.6541 17.3043 24.1573 17.8171C23.9111 18.0699 23.6168 18.2708 23.2917 18.408C22.9666 18.5452 22.6173 18.6159 22.2645 18.6159C21.9116 18.6159 21.5624 18.5452 21.2373 18.408C20.9122 18.2708 20.6179 18.0699 20.3717 17.8171L17.0313 14.407C16.6452 14.0274 16.1254 13.8147 15.584 13.8147C15.0425 13.8147 14.5228 14.0274 14.1367 14.407C13.7475 14.8083 13.5299 15.3453 13.5299 15.9043C13.5299 16.4633 13.7475 17.0003 14.1367 17.4016L17.4764 20.8136C17.9735 21.3261 18.2515 22.0121 18.2515 22.7261C18.2515 23.4401 17.9735 24.126 17.4764 24.6385C17.2305 24.8916 16.9363 25.0928 16.6113 25.2302C16.2862 25.3676 15.9369 25.4384 15.584 25.4384C15.2311 25.4384 14.8818 25.3676 14.5567 25.2302C14.2317 25.0928 13.9375 24.8916 13.6916 24.6385L10.3511 21.2271C9.96503 20.8473 9.44511 20.6345 8.90351 20.6345C8.3619 20.6345 7.84199 20.8473 7.45587 21.2271C7.06668 21.6285 6.84903 22.1657 6.84903 22.7248C6.84903 23.2839 7.06668 23.821 7.45587 24.2224L10.7956 27.6331C11.2927 28.1457 11.5707 28.8316 11.5707 29.5456C11.5707 30.2596 11.2927 30.9455 10.7956 31.458C10.5499 31.7112 10.2558 31.9125 9.93083 32.05C9.60587 32.1875 9.25663 32.2584 8.90378 32.2585C8.55093 32.2587 8.20164 32.188 7.87659 32.0507C7.55154 31.9134 7.25733 31.7123 7.01138 31.4593ZM7.9339 30.5562C8.19244 30.8109 8.54085 30.9538 8.90383 30.9538C9.26681 30.9538 9.61522 30.8109 9.87376 30.5562C10.1363 30.2853 10.2831 29.9228 10.2831 29.5456C10.2831 29.1683 10.1363 28.8059 9.87376 28.535L6.534 25.1243C5.91065 24.4809 5.5621 23.6203 5.5621 22.7245C5.5621 21.8287 5.91065 20.968 6.534 20.3246C6.84196 20.0077 7.21037 19.7557 7.61742 19.5837C8.02448 19.4116 8.46191 19.323 8.90383 19.323C9.34575 19.323 9.78318 19.4116 10.1902 19.5837C10.5973 19.7557 10.9657 20.0077 11.2737 20.3246L14.6134 23.736C14.8722 23.9909 15.2208 24.1337 15.584 24.1337C15.9472 24.1337 16.2958 23.9909 16.5546 23.736C16.8171 23.4651 16.9639 23.1027 16.9639 22.7254C16.9639 22.3482 16.8171 21.9858 16.5546 21.7149L13.2142 18.3048C12.5906 17.6614 12.242 16.8006 12.242 15.9046C12.242 15.0087 12.5906 14.1479 13.2142 13.5045C13.522 13.1875 13.8903 12.9355 14.2972 12.7634C14.7042 12.5913 15.1415 12.5027 15.5834 12.5027C16.0252 12.5027 16.4625 12.5913 16.8695 12.7634C17.2765 12.9355 17.6447 13.1875 17.9525 13.5045L21.2929 16.9158C21.5517 17.1711 21.9004 17.3141 22.2638 17.3141C22.6272 17.3141 22.976 17.1711 23.2347 16.9158C23.4971 16.645 23.6438 16.2827 23.6438 15.9056C23.6438 15.5285 23.4971 15.1662 23.2347 14.8953L19.8937 11.4859C19.2705 10.8424 18.922 9.98162 18.922 9.08576C18.922 8.18989 19.2705 7.32915 19.8937 6.6856C20.2017 6.36866 20.5701 6.11671 20.9771 5.94466C21.3842 5.77261 21.8216 5.68397 22.2635 5.68397C22.7054 5.68397 23.1429 5.77261 23.5499 5.94466C23.957 6.11671 24.3254 6.36866 24.6334 6.6856L27.9738 10.097C28.0995 10.2273 28.2502 10.331 28.4169 10.4018C28.5836 10.4726 28.7629 10.5091 28.944 10.5091C29.1251 10.5091 29.3044 10.4726 29.4711 10.4018C29.6378 10.331 29.7885 10.2273 29.9143 10.097C30.1766 9.82621 30.3232 9.46402 30.3232 9.08705C30.3232 8.71007 30.1766 8.34788 29.9143 8.07712L24.665 2.71234C24.2293 2.26325 23.7079 1.90622 23.1316 1.6624C22.5554 1.41859 21.9361 1.29296 21.3104 1.29296C20.6847 1.29296 20.0653 1.41859 19.4891 1.6624C18.9129 1.90622 18.3914 2.26325 17.9558 2.71234L2.68395 18.3054C1.7889 19.2291 1.2884 20.4648 1.2884 21.751C1.2884 23.0372 1.7889 24.2729 2.68395 25.1965L7.93519 30.5568L7.9339 30.5562Z" fill="white"/>
</svg>
