<svg class="@@class" width="40" height="40" viewBox="0 0 40 40" fill="none" xmlns="http://www.w3.org/2000/svg">
<path d="M36.3794 8.89808C35.1271 11.4374 33.5058 13.0471 31.56 13.6832C29.4955 14.3581 27.011 13.9478 24.169 12.4645C24.0771 12.4162 23.9748 12.391 23.871 12.391C23.7671 12.391 23.6648 12.4162 23.5729 12.4645C20.7342 13.9484 18.2452 14.3574 16.1819 13.6832C14.2361 13.0471 12.6148 11.4374 11.3619 8.89808C10.3684 6.88324 7.74194 7.65808 7.74194 10.0284V18.7491C7.74194 26.7155 11.0019 35.6265 18.0645 38.8136V24.5278C18.0645 24.3567 18.1325 24.1926 18.2535 24.0716C18.3745 23.9506 18.5386 23.8826 18.7097 23.8826C18.8808 23.8826 19.0449 23.9506 19.1659 24.0716C19.2869 24.1926 19.3548 24.3567 19.3548 24.5278V39.311C20.6068 39.72 21.9097 39.9519 23.2258 40V20.6542C23.2258 20.4831 23.2938 20.319 23.4148 20.198C23.5358 20.077 23.6999 20.009 23.871 20.009C24.0421 20.009 24.2062 20.077 24.3272 20.198C24.4482 20.319 24.5161 20.4831 24.5161 20.6542V40C25.8323 39.9519 27.1352 39.72 28.3871 39.311V24.5278C28.3871 24.3567 28.4551 24.1926 28.5761 24.0716C28.6971 23.9506 28.8612 23.8826 29.0323 23.8826C29.2034 23.8826 29.3675 23.9506 29.4885 24.0716C29.6095 24.1926 29.6774 24.3567 29.6774 24.5278V38.8116C36.7581 35.6187 40 26.6826 40 18.7471V10.0284C40 7.65808 37.3736 6.88389 36.3794 8.89808Z" fill="#EB1616"/>
<path d="M0.645161 4.51613H4.51613V5.80645C4.51613 7.0042 4.99194 8.1529 5.83887 8.99984C6.68581 9.84678 7.83451 10.3226 9.03226 10.3226C10.23 10.3226 11.3787 9.84678 12.2256 8.99984C13.0726 8.1529 13.5484 7.0042 13.5484 5.80645V4.20387C14.2632 3.57963 15.18 3.23564 16.129 3.23564C17.078 3.23564 17.9949 3.57963 18.7097 4.20387V5.80645C18.7097 7.0042 19.1855 8.1529 20.0324 8.99984C20.8794 9.84678 22.0281 10.3226 23.2258 10.3226C24.4236 10.3226 25.5723 9.84678 26.4192 8.99984C27.2661 8.1529 27.7419 7.0042 27.7419 5.80645V4.51613H31.6129C31.784 4.51613 31.9481 4.44816 32.0691 4.32717C32.1901 4.20617 32.2581 4.04208 32.2581 3.87097C32.2581 3.69986 32.1901 3.53576 32.0691 3.41477C31.9481 3.29378 31.784 3.22581 31.6129 3.22581H27.7419V1.93548C27.7419 1.42216 27.538 0.929864 27.175 0.56689C26.8121 0.203916 26.3198 0 25.8065 0H20.6452C20.1318 0 19.6395 0.203916 19.2766 0.56689C18.9136 0.929864 18.7097 1.42216 18.7097 1.93548V2.66194C17.9299 2.19491 17.038 1.94825 16.129 1.94825C15.2201 1.94825 14.3282 2.19491 13.5484 2.66194V1.93548C13.5484 1.42216 13.3445 0.929864 12.9815 0.56689C12.6185 0.203916 12.1262 0 11.6129 0H6.45161C5.93829 0 5.44599 0.203916 5.08302 0.56689C4.72005 0.929864 4.51613 1.42216 4.51613 1.93548V3.22581H0.645161C0.474054 3.22581 0.309955 3.29378 0.188963 3.41477C0.0679721 3.53576 0 3.69986 0 3.87097C0 4.04208 0.0679721 4.20617 0.188963 4.32717C0.309955 4.44816 0.474054 4.51613 0.645161 4.51613ZM20 1.93548C20 1.76438 20.068 1.60028 20.189 1.47929C20.31 1.35829 20.4741 1.29032 20.6452 1.29032H25.8065C25.9776 1.29032 26.1417 1.35829 26.2627 1.47929C26.3836 1.60028 26.4516 1.76438 26.4516 1.93548V5.80645C26.4516 6.66199 26.1118 7.48249 25.5068 8.08744C24.9018 8.6924 24.0813 9.03226 23.2258 9.03226C22.3703 9.03226 21.5498 8.6924 20.9448 8.08744C20.3399 7.48249 20 6.66199 20 5.80645V1.93548ZM5.80645 1.93548C5.80645 1.76438 5.87442 1.60028 5.99542 1.47929C6.11641 1.35829 6.28051 1.29032 6.45161 1.29032H11.6129C11.784 1.29032 11.9481 1.35829 12.0691 1.47929C12.1901 1.60028 12.2581 1.76438 12.2581 1.93548V5.80645C12.2581 6.66199 11.9182 7.48249 11.3132 8.08744C10.7083 8.6924 9.8878 9.03226 9.03226 9.03226C8.17672 9.03226 7.35623 8.6924 6.75127 8.08744C6.14631 7.48249 5.80645 6.66199 5.80645 5.80645V1.93548Z" fill="white"/>
<path d="M32.2445 17.3548C32.231 17.2168 32.1733 17.0869 32.0801 16.9842C31.9869 16.8816 31.8631 16.8117 31.7271 16.7849C31.5911 16.7581 31.4501 16.7759 31.3249 16.8355C31.1997 16.8952 31.0971 16.9936 31.0323 17.1161C30.9845 17.2077 29.8181 19.3412 26.3626 19.3412C24.8336 19.3412 24.1536 18.5529 23.2929 17.5554C22.2465 16.3451 20.9465 14.8387 17.842 14.8387C17.2372 14.8326 16.6432 14.9983 16.129 15.3167C15.6149 14.9983 15.0209 14.8326 14.4161 14.8387C11.3116 14.8387 10.0116 16.3451 8.96776 17.5554C8.10711 18.5529 7.42711 19.3412 5.89808 19.3412C2.4426 19.3412 1.27614 17.2077 1.23098 17.1206C1.16754 16.9959 1.0653 16.8953 0.939668 16.8338C0.81404 16.7723 0.671829 16.7533 0.534461 16.7796C0.397093 16.806 0.272011 16.8763 0.178059 16.9799C0.0841069 17.0835 0.0263755 17.2149 0.0135629 17.3541C-0.0770882 19.2732 0.555051 21.1565 1.78518 22.6322C3.3613 24.4871 5.83163 25.5445 9.12905 25.7754C12.8832 26.038 15.0136 24.5703 16.129 23.32C17.8936 25.2974 20.4516 25.9651 23.129 25.7754C26.4265 25.5445 28.8968 24.4851 30.4729 22.6322C31.7029 21.1567 32.335 19.2736 32.2445 17.3548ZM29.489 21.7974C28.1471 23.3774 25.9768 24.2832 23.0374 24.489C20.1987 24.6909 17.9349 23.7729 16.66 21.9129C16.6008 21.8264 16.5213 21.7556 16.4286 21.7067C16.3359 21.6578 16.2326 21.6323 16.1278 21.6323C16.0229 21.6323 15.9197 21.6578 15.8269 21.7067C15.7342 21.7556 15.6547 21.8264 15.5955 21.9129C14.3213 23.7729 12.0561 24.6903 9.21808 24.489C6.28969 24.2838 4.1213 23.3832 2.78066 21.8122C2.1598 21.08 1.71802 20.2132 1.49034 19.2806C2.76736 20.2079 4.31686 20.6835 5.89421 20.6322C8.01421 20.6322 9.03743 19.4458 9.94066 18.3993C10.9516 17.2316 11.9026 16.129 14.4161 16.129C14.8878 16.1177 15.3459 16.2871 15.6968 16.6025C15.8153 16.7095 15.9694 16.7688 16.129 16.7688C16.2887 16.7688 16.4428 16.7095 16.5613 16.6025C16.9122 16.2871 17.3703 16.1177 17.842 16.129C20.3581 16.129 21.3065 17.2316 22.3136 18.3987C23.2168 19.4451 24.24 20.6316 26.36 20.6316C27.9397 20.6829 29.4914 20.2061 30.7697 19.2767C30.5428 20.2042 30.1045 21.0667 29.489 21.7967V21.7974Z" fill="white"/>
</svg>
