<svg class="@@class" width="40" height="40" viewBox="0 0 40 40" fill="none" xmlns="http://www.w3.org/2000/svg">
<path d="M28.3882 33.5483C29.4572 33.5483 30.3237 32.6818 30.3237 31.6129C30.3237 30.5439 29.4572 29.6774 28.3882 29.6774C27.3193 29.6774 26.4528 30.5439 26.4528 31.6129C26.4528 32.6818 27.3193 33.5483 28.3882 33.5483Z" fill="#EB1616"/>
<path d="M29.6786 21.9354H27.0979C26.7416 21.9354 26.4528 22.2243 26.4528 22.5806V25.1612C26.4528 25.5175 26.7416 25.8064 27.0979 25.8064H29.6786C30.0349 25.8064 30.3237 25.5175 30.3237 25.1612V22.5806C30.3237 22.2243 30.0349 21.9354 29.6786 21.9354Z" fill="#EB1616"/>
<path d="M38.0657 12.9032H36.1302C35.9591 12.9032 35.795 12.8353 35.674 12.7143C35.553 12.5933 35.485 12.4292 35.485 12.2581V9.67743C35.485 9.1641 35.2811 8.67181 34.9181 8.30883C34.5551 7.94586 34.0628 7.74194 33.5495 7.74194H23.2269C22.7136 7.74194 22.2213 7.94586 21.8583 8.30883C21.4954 8.67181 21.2915 9.1641 21.2915 9.67743V12.2581C21.2915 12.4292 21.2235 12.5933 21.1025 12.7143C20.9815 12.8353 20.8174 12.9032 20.6463 12.9032H18.7108C18.1975 12.9032 17.7052 13.1071 17.3422 13.4701C16.9792 13.8331 16.7753 14.3254 16.7753 14.8387V32.9032C16.7753 33.4166 16.9792 33.9089 17.3422 34.2718C17.7052 34.6348 18.1975 34.8387 18.7108 34.8387H20.6463C20.8174 34.8387 20.9815 34.9067 21.1025 35.0277C21.2235 35.1487 21.2915 35.3128 21.2915 35.4839V38.0645C21.2915 38.5778 21.4954 39.0701 21.8583 39.4331C22.2213 39.7961 22.7136 40 23.2269 40H33.5495C34.0628 40 34.5551 39.7961 34.9181 39.4331C35.2811 39.0701 35.485 38.5778 35.485 38.0645V35.4839C35.485 35.3128 35.553 35.1487 35.674 35.0277C35.795 34.9067 35.9591 34.8387 36.1302 34.8387H38.0657C38.579 34.8387 39.0713 34.6348 39.4342 34.2718C39.7972 33.9089 40.0011 33.4166 40.0011 32.9032V14.8387C40.0011 14.3254 39.7972 13.8331 39.4342 13.4701C39.0713 13.1071 38.579 12.9032 38.0657 12.9032ZM29.6786 20.6452C30.1919 20.6452 30.6842 20.8491 31.0471 21.2121C31.4101 21.575 31.614 22.0673 31.614 22.5807V25.1613C31.614 25.6746 31.4101 26.1669 31.0471 26.5299C30.6842 26.8929 30.1919 27.0968 29.6786 27.0968H29.0334V28.4516C29.8166 28.6115 30.5126 29.0565 30.9864 29.7004C31.4602 30.3443 31.6781 31.1411 31.5977 31.9365C31.5174 32.7318 31.1445 33.469 30.5516 34.0051C29.9586 34.5412 29.1876 34.8381 28.3882 34.8381C27.5888 34.8381 26.8179 34.5412 26.2249 34.0051C25.6319 33.469 25.2591 32.7318 25.1788 31.9365C25.0984 31.1411 25.3163 30.3443 25.79 29.7004C26.2638 29.0565 26.9598 28.6115 27.7431 28.4516V27.0968H27.0979C26.5846 27.0968 26.0923 26.8929 25.7293 26.5299C25.3663 26.1669 25.1624 25.6746 25.1624 25.1613V22.5807C25.1624 22.0673 25.3663 21.575 25.7293 21.2121C26.0923 20.8491 26.5846 20.6452 27.0979 20.6452H27.7431V19.2903C26.9598 19.1304 26.2638 18.6854 25.79 18.0416C25.3163 17.3977 25.0984 16.6008 25.1788 15.8055C25.2591 15.0101 25.6319 14.2729 26.2249 13.7368C26.8179 13.2007 27.5888 12.9039 28.3882 12.9039C29.1876 12.9039 29.9586 13.2007 30.5516 13.7368C31.1445 14.2729 31.5174 15.0101 31.5977 15.8055C31.6781 16.6008 31.4602 17.3977 30.9864 18.0416C30.5126 18.6854 29.8166 19.1304 29.0334 19.2903V20.6452H29.6786Z" fill="#EB1616"/>
<path d="M28.3882 18.0646C29.4572 18.0646 30.3237 17.198 30.3237 16.1291C30.3237 15.0601 29.4572 14.1936 28.3882 14.1936C27.3193 14.1936 26.4528 15.0601 26.4528 16.1291C26.4528 17.198 27.3193 18.0646 28.3882 18.0646Z" fill="#EB1616"/>
<path d="M0.00114682 26.5019C-0.0174817 27.1879 0.19128 27.8608 0.594916 28.4158C0.998551 28.9708 1.5744 29.3767 2.23276 29.5703C11.2975 32.2939 20.9628 32.2939 30.0276 29.5703C30.6712 29.3866 31.2374 28.9979 31.6401 28.4632C32.0429 27.9285 32.2602 27.2771 32.2592 26.6077V26.5019C32.2576 26.0275 32.1466 25.5599 31.9349 25.1353C31.7231 24.7108 31.4164 24.3408 31.0384 24.0541C30.6604 23.7674 30.2214 23.5717 29.7556 23.4822C29.2897 23.3927 28.8094 23.4118 28.3521 23.5381C20.4163 25.6819 12.0561 25.6993 4.11147 23.5884C4.61579 22.6354 5.06597 21.6547 5.45986 20.651H10.8005C11.2305 20.6541 11.6492 20.5127 11.9893 20.2495C12.3294 19.9863 12.5712 19.6164 12.676 19.1994C14.1674 13.2128 13.6989 6.90564 11.3392 1.20516C11.1927 0.849112 10.9438 0.544547 10.624 0.330017C10.3043 0.115486 9.92811 0.000634664 9.54308 0H5.3347C5.0079 0.00143645 4.68677 0.0854298 4.40112 0.24418C4.11548 0.40293 3.87458 0.631289 3.7008 0.908049C3.52702 1.18481 3.426 1.501 3.40711 1.82725C3.38822 2.1535 3.45208 2.47923 3.59276 2.77419C4.88808 5.40139 5.62956 8.2668 5.77118 11.1925C5.91279 14.1183 5.45152 17.0419 4.41599 19.7819C3.9417 21.0463 3.37523 22.2741 2.72115 23.4555C1.97241 23.5398 1.28103 23.8971 0.779214 24.4591C0.277402 25.0212 0.000386208 25.7485 0.00114682 26.5019ZM5.92889 19.3606C7.80774 13.7183 7.38796 7.56282 4.7605 2.22774C4.71056 2.12946 4.68664 2.02002 4.69102 1.90986C4.69539 1.7997 4.72793 1.69251 4.78551 1.5985C4.8431 1.50449 4.92381 1.4268 5.01995 1.37285C5.11609 1.3189 5.22445 1.29049 5.3347 1.29032H9.54308C9.67056 1.28959 9.7954 1.32664 9.90184 1.3968C10.0083 1.46695 10.0916 1.56707 10.1411 1.68452C12.3977 7.13468 12.8462 13.1651 11.4205 18.889C11.3832 19.0254 11.3019 19.1456 11.1891 19.2309C11.0764 19.3162 10.9386 19.3618 10.7973 19.3606H5.92889ZM1.29147 26.5019C1.29316 26.2254 1.35872 25.953 1.48302 25.7059C1.60732 25.4589 1.78701 25.2439 2.00807 25.0777C2.22914 24.9115 2.4856 24.7987 2.75745 24.7479C3.02931 24.6972 3.30922 24.7099 3.57534 24.7852C11.7977 27.0077 20.4627 27.0077 28.685 24.7852C28.9511 24.7099 29.231 24.6972 29.5029 24.7479C29.7748 24.7987 30.0312 24.9115 30.2523 25.0777C30.4733 25.2439 30.653 25.4589 30.7773 25.7059C30.9016 25.953 30.9672 26.2254 30.9689 26.5019V26.6077C30.9685 26.9983 30.8407 27.378 30.6049 27.6894C30.3691 28.0007 30.0382 28.2266 29.6624 28.3329C20.8357 30.9839 11.4247 30.9839 2.59792 28.3329C2.20678 28.2177 1.86553 27.9748 1.6287 27.6429C1.39187 27.311 1.27314 26.9093 1.29147 26.5019Z" fill="white"/>
</svg>
